<svg width="52" height="51" viewBox="0 0 52 51" fill="none" xmlns="http://www.w3.org/2000/svg">
<path d="M34.6636 18.6616C34.6636 18.8604 34.6244 19.0573 34.5483 19.2409C34.4723 19.4246 34.3607 19.5915 34.2202 19.7321C34.0796 19.8727 33.9127 19.9842 33.729 20.0602C33.5454 20.1363 33.3485 20.1755 33.1497 20.1755C32.9509 20.1755 32.7541 20.1363 32.5703 20.0602C32.3868 19.9842 32.2198 19.8727 32.0792 19.7321C31.9386 19.5915 31.8271 19.4246 31.7511 19.2409C31.6749 19.0573 31.6359 18.8604 31.6359 18.6616C31.6359 18.2601 31.7953 17.8751 32.0792 17.5911C32.3632 17.3072 32.7482 17.1477 33.1497 17.1477C33.5513 17.1477 33.9363 17.3072 34.2202 17.5911C34.504 17.8751 34.6636 18.2601 34.6636 18.6616ZM39.47 25.4953V25.5149L39.3834 31.0014C39.3613 32.9801 38.5655 34.8716 37.1664 36.2709C35.7674 37.6703 33.8761 38.4665 31.8974 38.489L26.3913 38.574H26.3716L20.8851 38.4874C18.9064 38.4653 17.015 37.6695 15.6156 36.2705C14.2162 34.8714 13.42 32.9801 13.3975 31.0014L13.3125 25.4953V25.4756L13.3991 19.9891C13.4212 18.0104 14.217 16.119 15.6161 14.7196C17.0151 13.3202 18.9064 12.524 20.8851 12.5015L26.3913 12.4165H26.4109L31.8974 12.5032C33.8761 12.5252 35.7676 13.321 37.1669 14.7201C38.5663 16.1191 39.3625 18.0104 39.385 19.9891L39.47 25.4953ZM37.0341 25.4953L36.9491 20.0267C36.9337 18.6817 36.3926 17.3961 35.4416 16.4449C34.4905 15.4938 33.2048 14.9527 31.8598 14.9374L26.3913 14.8524L20.9227 14.9374C19.5777 14.9527 18.2921 15.4938 17.3409 16.4449C16.3898 17.3961 15.8487 18.6817 15.8334 20.0267L15.7484 25.4953L15.8334 30.9638C15.8487 32.3088 16.3898 33.5945 17.3409 34.5456C18.2921 35.4968 19.5777 36.0377 20.9227 36.0531L26.3913 36.1381L31.8598 36.0531C33.2048 36.0377 34.4905 35.4968 35.4416 34.5456C36.3926 33.5945 36.9337 32.3088 36.9491 30.9638L37.0341 25.4953ZM33.1072 25.4953C33.1072 27.2764 32.3997 28.9847 31.1402 30.2442C29.8807 31.5037 28.1724 32.2112 26.3913 32.2112C24.6101 32.2112 22.9018 31.5037 21.6424 30.2442C20.3829 28.9847 19.6753 27.2764 19.6753 25.4953C19.6753 23.7141 20.3829 22.0058 21.6424 20.7464C22.9018 19.4869 24.6101 18.7793 26.3913 18.7793C28.1724 18.7793 29.8807 19.4869 31.1402 20.7464C32.3997 22.0058 33.1072 23.7141 33.1072 25.4953ZM30.6713 25.4953C30.6713 24.3601 30.2204 23.2715 29.4177 22.4688C28.615 21.6662 27.5264 21.2152 26.3913 21.2152C25.2561 21.2152 24.1675 21.6662 23.3648 22.4688C22.5622 23.2715 22.1112 24.3601 22.1112 25.4953C22.1112 26.6304 22.5622 27.719 23.3648 28.5217C24.1675 29.3244 25.2561 29.7753 26.3913 29.7753C27.5264 29.7753 28.615 29.3244 29.4177 28.5217C30.2204 27.719 30.6713 26.6304 30.6713 25.4953Z" fill="white"/>
<circle cx="26.3911" cy="25.4961" r="24.9946" stroke="white"/>
</svg>
