<svg width="52" height="51" viewBox="0 0 52 51" fill="none" xmlns="http://www.w3.org/2000/svg">
<path d="M17.4201 18.9329C18.8246 18.9329 19.9632 17.831 19.9632 16.4718C19.9632 15.1126 18.8246 14.0107 17.4201 14.0107C16.0155 14.0107 14.877 15.1126 14.877 16.4718C14.877 17.831 16.0155 18.9329 17.4201 18.9329Z" fill="white"/>
<path d="M19.8811 36.9808H14.959V20.5737H19.8811V36.9808ZM37.9289 36.9808H33.0068V28.2162C33.0068 25.9323 32.193 24.7953 30.5802 24.7953C29.3021 24.7953 28.4916 25.4319 28.0847 26.7067C28.0847 28.7773 28.0847 36.9808 28.0847 36.9808H23.1625C23.1625 36.9808 23.2282 22.2144 23.1625 20.5737H27.0477L27.348 23.8551H27.4497C28.4587 22.2144 30.0716 21.102 32.2832 21.102C33.965 21.102 35.3251 21.5696 36.3637 22.7444C37.4088 23.9208 37.9289 25.4991 37.9289 27.7157V36.9808Z" fill="white"/>
<path d="M51.3975 25.4956C51.3975 39.2998 40.207 50.4902 26.4028 50.4902C12.5987 50.4902 1.4082 39.2998 1.4082 25.4956C1.4082 11.6915 12.5987 0.500977 26.4028 0.500977C40.207 0.500977 51.3975 11.6915 51.3975 25.4956Z" stroke="white"/>
</svg>
